<svg width="18" height="16" viewBox="0 0 18 16" fill="none" xmlns="http://www.w3.org/2000/svg">
<path d="M9.00009 15.5C8.46259 15.0233 7.85509 14.5275 7.21259 14H7.20426C4.94176 12.15 2.37759 10.0566 1.24509 7.54829C0.873424 6.74996 0.675924 5.88163 0.666758 4.99996C0.665523 4.40161 0.783851 3.80905 1.01479 3.25706C1.24574 2.70508 1.58464 2.2048 2.0116 1.7856C2.43856 1.3664 2.94497 1.03674 3.5011 0.815959C4.05723 0.595183 4.65187 0.487747 5.25009 0.499959C6.23395 0.501513 7.19662 0.78586 8.02342 1.31913C8.38673 1.55493 8.71544 1.84017 9.00009 2.16663C9.28676 1.84163 9.61509 1.55663 9.97759 1.31913C10.804 0.785755 11.7665 0.501391 12.7501 0.499959C13.3483 0.487747 13.943 0.595183 14.4991 0.815959C15.0552 1.03674 15.5616 1.3664 15.9886 1.7856C16.4155 2.2048 16.7544 2.70508 16.9854 3.25706C17.2163 3.80905 17.3347 4.40161 17.3334 4.99996C17.3249 5.88231 17.1277 6.75262 16.7551 7.55246C15.6226 10.0608 13.0593 12.1533 10.7968 14L10.7884 14.0066C10.1451 14.5308 9.53843 15.0266 9.00093 15.5066L9.00009 15.5ZM5.25009 2.16663C4.47385 2.15691 3.72515 2.454 3.16676 2.99329C2.90047 3.25486 2.68948 3.56728 2.54632 3.912C2.40317 4.25672 2.33077 4.6267 2.33342 4.99996C2.34259 5.64163 2.48842 6.27496 2.76009 6.85663C3.2947 7.93887 4.01603 8.91832 4.89092 9.74996C5.71676 10.5833 6.66676 11.39 7.48842 12.0683C7.71592 12.2558 7.94759 12.445 8.17926 12.6341L8.32509 12.7533C8.54759 12.935 8.77759 13.1233 9.00009 13.3083L9.01092 13.2983L9.01592 13.2941H9.02092L9.02843 13.2883H9.03676L9.05176 13.2758L9.08592 13.2483L9.09176 13.2433L9.10092 13.2366H9.10592L9.11342 13.23L9.66676 12.7758L9.81176 12.6566C10.0459 12.4658 10.2776 12.2766 10.5051 12.0891C11.3268 11.4108 12.2776 10.605 13.1034 9.76746C13.9785 8.93628 14.6998 7.95707 15.2343 6.87496C15.5109 6.28829 15.6593 5.64829 15.6676 4.99996C15.6692 4.62777 15.5962 4.25904 15.4529 3.91553C15.3097 3.57202 15.099 3.2607 14.8334 2.99996C14.2761 2.45823 13.5273 2.15869 12.7501 2.16663C12.2812 2.16264 11.8168 2.25793 11.3873 2.44622C10.9579 2.63451 10.5732 2.91155 10.2584 3.25913L9.00009 4.70913L7.74176 3.25913C7.42702 2.91155 7.04228 2.63451 6.61284 2.44622C6.1834 2.25793 5.71898 2.16264 5.25009 2.16663Z" fill="#FF1B1B"/>
</svg>
