<svg width="18" height="16" viewBox="0 0 18 16" fill="none" xmlns="http://www.w3.org/2000/svg">
<path d="M9 15.5C8.4625 15.0233 7.855 14.5275 7.2125 14H7.20416C4.94166 12.15 2.3775 10.0566 1.245 7.54829C0.873331 6.74996 0.675831 5.88163 0.666664 4.99996C0.665429 4.40161 0.783757 3.80905 1.0147 3.25706C1.24564 2.70508 1.58454 2.2048 2.0115 1.7856C2.43846 1.3664 2.94488 1.03674 3.50101 0.815959C4.05714 0.595183 4.65177 0.487747 5.25 0.499959C6.23385 0.501513 7.19653 0.78586 8.02333 1.31913C8.38664 1.55493 8.71535 1.84017 9 2.16663C9.28666 1.84163 9.615 1.55663 9.9775 1.31913C10.8039 0.785755 11.7664 0.501391 12.75 0.499959C13.3482 0.487747 13.9429 0.595183 14.499 0.815959C15.0551 1.03674 15.5615 1.3664 15.9885 1.7856C16.4155 2.2048 16.7544 2.70508 16.9853 3.25706C17.2162 3.80905 17.3346 4.40161 17.3333 4.99996C17.3248 5.88231 17.1276 6.75262 16.755 7.55246C15.6225 10.0608 13.0592 12.1533 10.7967 14L10.7883 14.0066C10.145 14.5308 9.53833 15.0266 9.00083 15.5066L9 15.5ZM5.25 2.16663C4.47376 2.15691 3.72506 2.454 3.16666 2.99329C2.90038 3.25486 2.68938 3.56728 2.54623 3.912C2.40307 4.25672 2.33067 4.6267 2.33333 4.99996C2.3425 5.64163 2.48833 6.27496 2.76 6.85663C3.2946 7.93887 4.01593 8.91832 4.89083 9.74996C5.71666 10.5833 6.66666 11.39 7.48833 12.0683C7.71583 12.2558 7.9475 12.445 8.17916 12.6341L8.325 12.7533C8.5475 12.935 8.7775 13.1233 9 13.3083L9.01083 13.2983L9.01583 13.2941H9.02083L9.02833 13.2883H9.03666L9.05166 13.2758L9.08583 13.2483L9.09166 13.2433L9.10083 13.2366H9.10583L9.11333 13.23L9.66667 12.7758L9.81166 12.6566C10.0458 12.4658 10.2775 12.2766 10.505 12.0891C11.3267 11.4108 12.2775 10.605 13.1033 9.76746C13.9784 8.93628 14.6997 7.95707 15.2342 6.87496C15.5108 6.28829 15.6592 5.64829 15.6675 4.99996C15.6691 4.62777 15.5961 4.25904 15.4528 3.91553C15.3096 3.57202 15.0989 3.2607 14.8333 2.99996C14.276 2.45823 13.5272 2.15869 12.75 2.16663C12.2811 2.16264 11.8167 2.25793 11.3872 2.44622C10.9578 2.63451 10.5731 2.91155 10.2583 3.25913L9 4.70913L7.74166 3.25913C7.42692 2.91155 7.04219 2.63451 6.61275 2.44622C6.18331 2.25793 5.71889 2.16264 5.25 2.16663Z" fill="#0052FF"/>
</svg>
